<svg id="8fb4362a-f424-4535-9f51-af17e88d8616" data-name="Layer 1" xmlns="http://www.w3.org/2000/svg" viewBox="0 0 162.21 162.24"><defs><style>.c020a34e-3f03-4b38-9913-bc1773e9aad2{fill:#f64756;}</style></defs><title>faceb</title><path class="c020a34e-3f03-4b38-9913-bc1773e9aad2" d="M141.55.16H20.69A20.63,20.63,0,0,0,.12,20.72V141.59a20.64,20.64,0,0,0,20.57,20.57H81.12V106.55H61V81.16H81.12V60.51a30.39,30.39,0,0,1,30.3-30.3h20.27V55.92H116.4a4.77,4.77,0,0,0-4.75,4.75V81.16h24.92l-9.89,25.39h-15v55.61h29.9a20.63,20.63,0,0,0,20.57-20.57V20.72A20.62,20.62,0,0,0,141.55.16Z"/></svg>
