<svg id="8244d5a3-07b6-4576-af2d-2af9a411feac" data-name="Layer 1" xmlns="http://www.w3.org/2000/svg" viewBox="0 0 162.56 161.96"><defs><style>.\38 e8eef88-c0f2-4e7d-a1d7-6f1afd60401a{fill:#f64756;}</style></defs><title>istagr</title><path class="8e8eef88-c0f2-4e7d-a1d7-6f1afd60401a" d="M111.2,0H51.63A51.36,51.36,0,0,0,.42,51.21v59.56A51.36,51.36,0,0,0,51.63,162H111.2a51.37,51.37,0,0,0,51.22-51.22V51.21A51.37,51.37,0,0,0,111.2,0ZM147,111.56a35.88,35.88,0,0,1-35.78,35.77H50.85a35.87,35.87,0,0,1-35.77-35.77V51.2A35.87,35.87,0,0,1,50.85,15.43H111.2A35.88,35.88,0,0,1,147,51.2Z"/><path class="8e8eef88-c0f2-4e7d-a1d7-6f1afd60401a" d="M81.1,40.6a40.5,40.5,0,1,0,40.5,40.5A40.51,40.51,0,0,0,81.1,40.6Zm0,66.41A25.91,25.91,0,1,1,107,81.1,25.9,25.9,0,0,1,81.1,107Z"/><circle class="8e8eef88-c0f2-4e7d-a1d7-6f1afd60401a" cx="125" cy="37.56" r="5.14"/></svg>
