<svg id="7b1e076a-394e-4cdc-bf8e-9076486a7070" data-name="Layer 1" xmlns="http://www.w3.org/2000/svg" viewBox="0 0 236.1 162.23"><defs><style>.\31 464c1a0-2d7f-4d3b-97bc-8872bdcc67c0{fill:#f64756;}</style></defs><title>yout</title><path class="1464c1a0-2d7f-4d3b-97bc-8872bdcc67c0" d="M235.8,68.59c-.25-7.37-.88-12.88-2.13-23.59-1.34-11.43-1.93-13.87-2.23-15.07a54.12,54.12,0,0,0-6.77-16.19A23.71,23.71,0,0,0,220.07,8a24.83,24.83,0,0,0-10.74-5.18,42.22,42.22,0,0,0-6.71-1c-3.49-.33-7.4-.56-11.7-.57L126.06.15h0L125,.13v0H111.09v0l-1.1,0h-.24L45.12,1.28c-4.29,0-8.21.24-11.69.57a42.55,42.55,0,0,0-6.72,1A24.93,24.93,0,0,0,16,8a23.71,23.71,0,0,0-4.6,5.75A54.12,54.12,0,0,0,4.6,29.93c-.3,1.2-.88,3.64-2.22,15.07C1.12,55.71.49,61.22.25,68.59c-.17,5.28-.1,9.63,0,12.54-.1,2.9-.17,7.25,0,12.53.24,7.38.87,12.88,2.13,23.59,1.34,11.44,1.92,13.88,2.22,15.07a53.9,53.9,0,0,0,6.77,16.19,23.52,23.52,0,0,0,4.6,5.75,24.81,24.81,0,0,0,10.74,5.18,42.55,42.55,0,0,0,6.72,1c3.48.34,7.4.57,11.69.58l64.63,1.12v0h16.31v0L190.92,161c4.3,0,8.21-.24,11.7-.58a42.22,42.22,0,0,0,6.71-1,24.71,24.71,0,0,0,10.74-5.18,23.52,23.52,0,0,0,4.6-5.75,53.9,53.9,0,0,0,6.77-16.19c.3-1.19.89-3.63,2.23-15.07,1.25-10.71,1.88-16.21,2.13-23.59.17-5.28.09-9.63,0-12.53C235.89,78.22,236,73.87,235.8,68.59ZM88.61,125.16V36.76l73.64,44.37Z"/></svg>
